#!OML:ASF E:\Steps\Project 1\Capture day 1\Session 2\Subject.ASF
:FULLY-SPECIFIED
:DEGREES
414
root 12.0697 17.1293 17.1514 -153.45 0.00628317 178.071
lowerback -28.5371 -2.07111 -6.78498
upperback 0.476816 -0.829396 -0.013154
thorax 15.8183 -1.05396 3.32621
lowerneck -0.397063 -1.95211 -0.703991
upperneck 12.858 -2.44883 5.10914
head 4.40009 -0.712437 1.77909
rclavicle 6.90777e-015 3.24019e-014
rhumerus -40.4758 -16.8557 -74.9335
rradius 37.3922
rwrist -3.4252
rhand -7.4088 -51.8931
rfingers 7.12502
rthumb 18.4776 -81.0355
lclavicle 6.90777e-015 3.24019e-014
lhumerus -30.2947 3.20632 80.9527
lradius 27.0944
lwrist -0.375897
lhand -22.9829 -11.4159
lfingers 7.12502
lthumb 3.45962 18.5358
rfemur -23.7059 5.96827 18.4852
rtibia 6.32101
rfoot -17.4634 -4.30683
rtoes -24.7631
lfemur -24.0104 -8.36102 -22.0549
ltibia 6.81367
lfoot -5.96618 -4.50813
ltoes -27.0644
415
root 12.0733 17.1286 17.1493 -153.423 0.037674 178.081
lowerback -28.2984 -2.07297 -6.7663
upperback 0.261882 -0.89131 0.024086
thorax 15.4563 -1.07388 3.33472
lowerneck -0.482358 -1.95204 -0.936531
upperneck 12.8816 -2.45555 5.20178
head 4.43297 -0.723145 1.85304
rclavicle 9.24349e-015 -2.78299e-015
rhumerus -40.6665 -16.6155 -74.8641
rradius 37.4072
rwrist -3.46418
rhand -7.50258 -51.9588
rfingers 7.12502
rthumb 18.3874 -81.1098
lclavicle 9.24349e-015 -2.78299e-015
lhumerus -30.569 3.41856 80.9342
lradius 26.9364
lwrist -0.476151
lhand -22.7738 -11.6343
lfingers 7.12502
lthumb 3.66151 18.314
rfemur -23.742 5.78723 18.5648
rtibia 6.36915
rfoot -17.5337 -4.17952
rtoes -25.4129
lfemur -24.0563 -8.41427 -22.0248
ltibia 6.88545
lfoot -5.99666 -4.40417
ltoes -26.2719
416
root 12.0793 17.129 17.1507 -153.347 0.0488854 178.098
lowerback -28.5513 -2.1341 -6.77869
upperback 0.381205 -0.942717 0.0828411
thorax 15.7261 -1.10644 3.38178
lowerneck -0.237412 -1.89908 -1.15549
upperneck 11.7445 -2.43799 5.33238
head 3.98083 -0.780427 1.91901
rclavicle 4.47266e-016 1.25234e-014
rhumerus -40.2216 -16.5438 -74.9314
rradius 37.352
rwrist -3.58153
rhand -7.30105 -52.183
rfingers 7.12502
rthumb 18.5813 -81.3155
lclavicle 4.47266e-016 1.25234e-014
lhumerus -30.253 3.8153 80.9101
lradius 26.7699
lwrist -0.573615
lhand -22.3785 -11.664
lfingers 7.12502
lthumb 4.04324 18.2773
rfemur -23.8889 5.83285 18.6127
rtibia 6.52688
rfoot -17.6304 -4.17743
rtoes -25.2595
lfemur -24.1348 -8.34567 -21.988
ltibia 6.86987
lfoot -5.95151 -4.38109
ltoes -26.5849
417
root 12.0859 17.1292 17.1516 -153.296 0.0478845 178.1
lowerback -28.3162 -2.16779 -6.8697
upperback 0.170457 -1.01151 0.134016
thorax 15.3732 -1.1387 3.46273
lowerneck 0.0157744 -1.90252 -1.22524
upperneck 11.1867 -2.45436 5.32959
head 3.73573 -0.819778 1.92159
rclavicle -3.97569e-015 1.25234e-014
rhumerus -40.4264 -16.3317 -74.8577
rradius 37.4074
rwrist -3.70791
rhand -6.87688 -52.0519
rfingers 7.12502
rthumb 18.9892 -81.1449
lclavicle -3.97569e-015 1.25234e-014
lhumerus -30.4859 3.95536 80.8742
lradius 26.6675
lwrist -0.63445
lhand -22.251 -11.5364
lfingers 7.12502
lthumb 4.16641 18.4026
rfemur -23.9891 6.00949 18.5997
rtibia 6.58106
rfoot -17.6234 -4.27035
rtoes -24.8282
lfemur -24.1382 -8.31975 -21.9538
ltibia 6.72803
lfoot -5.91895 -4.39384
ltoes -26.7888
418
root 12.0919 17.1274 17.1494 -153.298 0.0514558 178.076
lowerback -28.2086 -2.19231 -6.9633
upperback 0.0638488 -1.03876 0.146108
thorax 15.1997 -1.15514 3.51717
lowerneck -0.00560315 -1.91388 -1.21119
upperneck 10.8803 -2.48383 5.30278
head 3.63203 -0.850949 1.90436
rclavicle 3.62782e-015 -9.14409e-015
rhumerus -40.593 -16.2757 -74.8179
rradius 37.4566
rwrist -3.60691
rhand -6.73316 -51.6875
rfingers 7.12502
rthumb 19.1274 -80.767
lclavicle 3.62782e-015 -9.14409e-015
lhumerus -30.6092 4.0373 80.8609
lradius 26.5497
lwrist -0.72706
lhand -22.4496 -11.262
lfingers 7.12502
lthumb 3.97465 18.6807
rfemur -23.962 6.27445 18.519
rtibia 6.50272
rfoot -17.5737 -4.48603
rtoes -24.5418
lfemur -24.09 -8.36616 -21.945
ltibia 6.6343
lfoot -5.96089 -4.36138
ltoes -27.0724
419
root 12.0977 17.1278 17.1475 -153.321 0.0429441 178.036
lowerback -28.3005 -2.22091 -7.02556
upperback 0.127052 -1.03852 0.128981
thorax 15.3179 -1.16202 3.53076
lowerneck -0.080168 -1.93347 -1.21585
upperneck 10.335 -2.54289 5.39696
head 3.46002 -0.903544 1.92735
rclavicle 1.07841e-014 -7.35503e-015
rhumerus -40.4783 -16.4206 -74.857
rradius 37.4714
rwrist -3.48803
rhand -6.89866 -51.6248
rfingers 7.12502
rthumb 18.9683 -80.7199
lclavicle 1.07841e-014 -7.35503e-015
lhumerus -30.4227 4.16012 80.8424
lradius 26.3954
lwrist -0.718941
lhand -22.4971 -11.0485
lfingers 7.12502
lthumb 3.92875 18.895
rfemur -23.9076 6.36737 18.4585
rtibia 6.44597
rfoot -17.5592 -4.54574
rtoes -24.2386
lfemur -24.0472 -8.40625 -21.9528
ltibia 6.59586
lfoot -5.97809 -4.3274
ltoes -27.4724
420
root 12.1034 17.1314 17.1462 -153.363 -0.0242556 178.031
lowerback -28.3833 -2.25194 -7.02316
upperback 0.210029 -1.0601 0.117571
thorax 15.4578 -1.17367 3.50734
lowerneck 0.0162857 -1.97303 -1.16659
upperneck 9.65443 -2.61972 5.46015
head 3.20953 -0.969023 1.92879
rclavicle -1.07344e-014 -1.70955e-014
rhumerus -40.3147 -16.5948 -74.9277
rradius 37.4996
rwrist -3.40342
rhand -7.15413 -51.8768
rfingers 7.12502
rthumb 18.7226 -80.9957
lclavicle -1.07344e-014 -1.70955e-014
lhumerus -30.1791 4.21278 80.8188
lradius 26.2002
lwrist -0.671865
lhand -22.3986 -11.1297
lfingers 7.12502
lthumb 4.02389 18.812
rfemur -23.8196 6.26409 18.5141
rtibia 6.37839
rfoot -17.5312 -4.50859
rtoes -24.3805
lfemur -24.0072 -8.41693 -21.9141
ltibia 6.60597
lfoot -5.927 -4.35485
ltoes -27.0195
421
root 12.1101 17.1335 17.1442 -153.407 -0.142115 178.073
lowerback -28.3313 -2.28934 -6.9984
upperback 0.191199 -1.12702 0.147778
thorax 15.4193 -1.20086 3.50159
lowerneck 0.169835 -1.93443 -1.06111
upperneck 9.17615 -2.56823 5.30045
head 3.00873 -0.968243 1.85248
rclavicle -4.62174e-015 -6.55989e-015
rhumerus -40.314 -16.6545 -74.934
rradius 37.5133
rwrist -3.26964
rhand -7.20113 -51.7116
rfingers 7.12502
rthumb 18.6774 -80.835
lclavicle -4.62174e-015 -6.55989e-015
lhumerus -30.1662 4.27342 80.7952
lradius 26.0376
lwrist -0.707801
lhand -22.2997 -11.3034
lfingers 7.12502
lthumb 4.11937 18.6365
rfemur -23.6831 6.23664 18.6356
rtibia 6.2542
rfoot -17.49 -4.62099
rtoes -24.609
lfemur -23.9931 -8.4106 -21.8134
ltibia 6.68777
lfoot -5.90208 -4.45112
ltoes -26.2549
422
root 12.1169 17.133 17.1422 -153.396 -0.19154 178.124
lowerback -28.323 -2.30668 -6.97459
upperback 0.127968 -1.17172 0.170869
thorax 15.346 -1.21896 3.49584
lowerneck 0.386452 -1.88221 -1.01596
upperneck 8.65558 -2.49799 5.19474
head 2.78591 -0.959074 1.80598
rclavicle -1.0138e-014 6.75868e-015
rhumerus -40.3346 -16.5129 -74.9752
rradius 37.466
rwrist -3.24336
rhand -7.10129 -51.1914
rfingers 7.12502
rthumb 18.7734 -80.3055
lclavicle -1.0138e-014 6.75868e-015
lhumerus -30.2585 4.2969 80.7527
lradius 25.8826
lwrist -0.754958
lhand -22.1623 -11.5599
lfingers 7.12502
lthumb 4.25209 18.3774
rfemur -23.6432 6.29109 18.7312
rtibia 6.20511
rfoot -17.5072 -4.68589
rtoes -24.4607
lfemur -24.0226 -8.27484 -21.7469
ltibia 6.74597
lfoot -5.91112 -4.6378
ltoes -26.4198
423
root 12.1214 17.1317 17.1393 -153.36 -0.124395 178.14
lowerback -28.375 -2.27244 -6.93644
upperback 0.0638753 -1.14051 0.113499
thorax 15.2887 -1.20152 3.42229
lowerneck 0.547311 -1.88434 -0.930883
upperneck 8.13741 -2.50617 5.18263
head 2.58061 -0.982675 1.78208
rclavicle 1.25234e-014 1.15295e-014
rhumerus -40.3733 -16.3797 -75.0862
rradius 37.4122
rwrist -3.3677
rhand -6.99443 -50.7722
rfingers 7.12502
rthumb 18.8762 -79.8763
lclavicle 1.25234e-014 1.15295e-014
lhumerus -30.3162 4.3412 80.6003
lradius 25.6707
lwrist -0.899193
lhand -22.0067 -11.795
lfingers 7.12502
lthumb 4.40227 18.1393
rfemur -23.6897 6.30902 18.7561
rtibia 6.23749
rfoot -17.544 -4.57265
rtoes -24.2629
lfemur -24.0165 -8.10521 -21.7604
ltibia 6.68717
lfoot -5.92319 -4.74307
ltoes -26.8811
424
root 12.1232 17.1308 17.1358 -153.342 -0.0617189 178.119
lowerback -28.2462 -2.22001 -6.88298
upperback -0.0866411 -1.11038 0.0199765
thorax 15.0426 -1.17792 3.30382
lowerneck 0.679701 -1.8722 -0.873958
upperneck 7.60597 -2.4961 5.21547
head 2.37888 -0.996654 1.77874
rclavicle -1.26228e-014 -1.98785e-015
rhumerus -40.5826 -16.3272 -75.2047
rradius 37.4633
rwrist -3.64844
rhand -7.09097 -50.7582
rfingers 7.12502
rthumb 18.7833 -79.8714
lclavicle -1.26228e-014 -1.98785e-015
lhumerus -30.4909 4.3749 80.4056
lradius 25.5069
lwrist -1.04642
lhand -21.9843 -11.8567
lfingers 7.12502
lthumb 4.42395 18.0771
rfemur -23.7137 6.16031 18.7651
rtibia 6.2411
rfoot -17.5412 -4.31232
rtoes -23.8827
lfemur -23.984 -8.05959 -21.8084
ltibia 6.63172
lfoot -5.99399 -4.72466
ltoes -27.3486
